<?xml version="1.0" standalone="no"?>
<!DOCTYPE svg PUBLIC "-//W3C//DTD SVG 20010904//EN"
 "http://www.w3.org/TR/2001/REC-SVG-20010904/DTD/svg10.dtd">
<svg version="1.0" xmlns="http://www.w3.org/2000/svg"
 width="260.000000pt" height="260.000000pt" viewBox="0 0 260.000000 260.000000"
 preserveAspectRatio="xMidYMid meet">
<metadata>
Created by potrace 1.11, written by Peter Selinger 2001-2013
</metadata>
<g transform="translate(0.000000,260.000000) scale(0.100000,-0.100000)"
fill="#000000" stroke="none">
<path d="M499 2538 c-1 -13 -2 -24 -14 -88 -4 -19 -9 -46 -11 -60 -2 -14 -9
-45 -14 -70 -9 -46 -45 -230 -54 -285 -3 -16 -26 -138 -51 -270 -25 -132 -55
-287 -65 -345 -11 -58 -22 -116 -25 -130 -8 -40 -12 -64 -50 -265 -19 -104
-40 -210 -45 -235 -5 -25 -12 -56 -14 -70 -2 -14 -15 -86 -30 -160 -14 -74
-28 -148 -31 -165 -2 -16 -7 -40 -9 -53 l-5 -22 212 2 211 3 18 105 c9 58 19
119 21 135 3 17 15 96 28 178 l23 147 213 0 c117 0 213 -3 214 -7 0 -5 2 -19
5 -33 7 -40 35 -212 39 -240 5 -36 17 -112 21 -135 25 -172 12 -154 112 -157
l87 -3 0 -133 0 -134 290 4 c259 4 298 7 365 26 172 49 304 140 402 277 66 91
139 258 163 370 11 51 33 187 40 245 13 114 7 384 -11 490 -3 19 -7 46 -9 60
-19 139 -90 325 -168 439 -108 159 -277 266 -479 304 -55 10 -147 14 -335 13
l-258 -1 0 -287 c0 -264 -5 -330 -18 -238 -3 19 -17 98 -32 175 -15 77 -29
151 -31 165 -3 14 -11 57 -19 95 -8 39 -17 88 -20 110 -4 22 -8 48 -11 57 -5
18 -6 23 -24 126 l-13 72 -309 0 c-239 0 -308 -3 -309 -12z m326 -424 c8 -49
17 -109 20 -134 3 -25 7 -56 10 -70 7 -36 14 -81 19 -121 4 -31 29 -187 40
-249 22 -123 46 -293 42 -297 -4 -4 -212 -6 -289 -4 -15 1 -17 7 -12 44 3 23
8 49 10 57 2 8 7 37 10 65 3 27 7 57 9 65 3 8 8 33 11 55 3 22 8 56 11 75 3
19 14 85 24 145 10 61 21 133 25 160 3 28 8 59 11 70 2 11 6 36 8 55 6 52 18
143 22 160 1 8 3 17 3 19 4 18 14 -20 26 -95z m1063 -218 c88 -46 152 -169
186 -358 20 -114 27 -452 13 -613 -13 -158 -43 -279 -89 -366 -51 -98 -118
-144 -214 -148 l-54 -2 0 757 0 757 65 -6 c35 -3 77 -13 93 -21z"/>
</g>
</svg>
