<?xml version="1.0" encoding="UTF-8" standalone="no"?>
<!-- Generator: Adobe Illustrator 21.0.2, SVG Export Plug-In . SVG Version: 6.00 Build 0)  -->

<svg
   version="1.1"
   id="Ebene_1"
   x="0px"
   y="0px"
   viewBox="0 0 278.8 167.69999"
   xml:space="preserve"
   width="278.79999"
   height="167.7"
   xmlns="http://www.w3.org/2000/svg"
   xmlns:svg="http://www.w3.org/2000/svg"
   xmlns:rdf="http://www.w3.org/1999/02/22-rdf-syntax-ns#"
   xmlns:cc="http://creativecommons.org/ns#"
   xmlns:dc="http://purl.org/dc/elements/1.1/"><defs
   id="defs85" />
<style
   type="text/css"
   id="style2">
	.st0{enable-background:new    ;}
	.st1{fill:#424241;}
	.st2{fill:#004F9F;}
</style>
<title
   id="title4">UKB-Logo</title>







<g
   id="g70"
   transform="translate(0,0.1)">
	<path
   class="st2"
   d="m 74.6,106.1 c 0,29.9 -15.5,51.3 -38.1,51.3 -18.9,0 -24.4,-11.6 -24.4,-31.7 V 52 H 0 v 78.7 c 0,20.3 8,36.5 34.2,36.5 20.3,0 34,-11.1 40.4,-28.9 v 29.3 H 86.7 V 0 H 74.6 Z"
   id="path68" />
</g>
<g
   id="g74"
   transform="translate(0,0.1)">
	<polygon
   class="st1"
   points="160.5,54.2 113.3,105.7 164.3,167.5 147.9,167.5 99.4,106.6 145.9,54.2 "
   id="polygon72" />
</g>
<g
   id="g78"
   transform="translate(0,0.1)">
	<path
   class="st1"
   d="m 236.9,51.2 c -18.5,0 -32.4,11.3 -39,30.5 0,0 0,-14.5 0,-20.7 V -0.1 h -12.1 v 163.7 c 11.2,2.7 21,3.9 35.8,3.9 34.2,0 57.2,-21.4 57.2,-62.7 0,-35.8 -15.5,-53.6 -41.9,-53.6 M 223,156.9 c -9.6,0 -17.6,-0.9 -25.1,-3.4 v -42.9 c 0,-20.5 11.8,-50.6 37.6,-50.6 21,0 30.6,17.1 30.6,44.7 0,36.7 -16.9,52.2 -43.1,52.2"
   id="path76" />
</g>
<text
   style="font-size:12px;font-family:MyriadPro-Regular"
   id="text80"
   x="215"
   y="-164.89999">Lorem ipsum</text>
<metadata
   id="metadata998"><rdf:RDF><cc:Work
       rdf:about=""><dc:title>UKB-Logo</dc:title></cc:Work></rdf:RDF></metadata></svg>
